<svg xmlns="http://www.w3.org/2000/svg" width="24" height="24" viewBox="0 0 24 24"><path d="M15.13 21.453l-2.172-3.033c-.58-.81-1.052-1.443-1.077-1.444-.025 0-.937 1.227-2.16 2.903-1.162 1.594-2.123 2.9-2.134 2.9-.034 0-4.193-2.93-4.203-2.962-.006-.015.935-1.395 2.09-3.07 1.154-1.672 2.1-3.065 2.1-3.097 0-.05-.375-.182-3.31-1.16-1.82-.608-3.326-1.11-3.348-1.12-.03-.01.143-.59.737-2.465.427-1.348.785-2.462.8-2.477.01-.014 1.593.492 3.514 1.125 1.922.634 3.51 1.15 3.53 1.15.018 0 .04-.032.05-.066.007-.036.024-1.67.035-3.635.014-1.962.035-3.585.047-3.605.018-.03.56-.036 2.54-.036 1.383 0 2.53.012 2.548.023.023.014.06 1.093.125 3.52.104 3.98.107 4.032.17 4.032.023 0 1.547-.51 3.383-1.132 1.837-.623 3.348-1.122 3.36-1.11.036.04 1.543 4.946 1.524 4.963-.01.01-1.542.534-3.406 1.166-2.562.87-3.39 1.16-3.396 1.196-.005.03.876 1.345 1.996 2.985 1.103 1.616 2.003 2.948 1.998 2.964-.012.035-4.14 3.075-4.175 3.075-.014.002-.537-.714-1.163-1.587v-.002z"/></svg>
