<svg xmlns="http://www.w3.org/2000/svg" width="24" height="24"><linearGradient id="a" gradientUnits="userSpaceOnUse" x1="299.876" y1="-360.233" x2="296.543" y2="-362.156" gradientTransform="matrix(1 0 0 -1 -294 -359)"><stop offset=".113" stop-color="#0cd9d1"/><stop offset=".521" stop-color="#4ba0e6"/><stop offset=".871" stop-color="#7877f5"/><stop offset=".962" stop-color="#8d62f9"/></linearGradient><circle cx="4.2" cy="2.2" r="1.9" fill="url(#a)"/><linearGradient id="b" gradientUnits="userSpaceOnUse" x1="185.496" y1="-431.893" x2="182.164" y2="-433.817" gradientTransform="scale(1 -1) rotate(17.998 -1241.786 -756.351)"><stop offset=".038" stop-color="#0cd9d1"/><stop offset=".328" stop-color="#4ba0e6"/><stop offset=".823" stop-color="#7877f5"/><stop offset=".962" stop-color="#8d62f9"/></linearGradient><circle cx="14.1" cy="8.2" r="1.9" fill="url(#b)"/><linearGradient id="c" gradientUnits="userSpaceOnUse" x1="306.015" y1="-359.351" x2="306.015" y2="-382.867" gradientTransform="matrix(1 0 0 -1 -294 -359)"><stop offset=".011" stop-color="#0cd9d1"/><stop offset=".452" stop-color="#4ba0e6"/><stop offset=".828" stop-color="#7877f5"/><stop offset="1" stop-color="#8d62f9"/></linearGradient><path d="M14.3 12.1s-2.9 2.3-.5 5.7c0 0 3.1 3.1 6-.2 0 0 .2 5.2-5 6.2 0 0-5.6.6-6.7-4.8-.3-2.4.9-6.8 6.2-6.9zm9.4-2C19 4.4 11.2 6.2 8.5 9.8c-5.7 7.8.9 13.7.9 13.7-8-2.1-9-9.5-9-9.5C-.3 6.3 4.5 3 4.5 3 7.9-.4 13.8.3 13.8.3c8.6 1.6 9.9 9.8 9.9 9.8zm-3.8-4.9c0-.6-.4-1-1-1s-1 .4-1 1 .4 1 1 1 1-.4 1-1z" fill="url(#c)"/></svg>
