<svg xmlns="http://www.w3.org/2000/svg" width="24" height="24"><path fill="#F68525" d="M.5 23.466l11.5-11.5v11.5H.5zM23.5 23.466L12 11.966v11.5h11.5z"/><path fill="#818181" d="M12 11.966l11.5 11.5v-11.5H12z"/><path fill="#C8C8C8" d="M12 11.966L.5 23.466v-11.5H12z"/><path fill="#818181" d="M.5 11.966L12 .466v11.5H.5z"/><path fill="#C8C8C8" d="M23.5 11.966L12 .466v11.5h11.5z"/><path fill="#FFF" d="M17.841 9.656a2.31 2.31 0 00-2.31 2.31c0 .363.091.702.24 1.008l-2.822 2.822V9.225a2.31 2.31 0 10-1.897-.021v11.965l-2.67-2.565a2.31 2.31 0 10-2.132 1.422c.353 0 .684-.086.983-.227l3.819 3.666h1.897v-5.369l3.999-3.999a2.31 2.31 0 10.893-4.441z"/></svg>