<svg xmlns="http://www.w3.org/2000/svg" width="24" height="24"><g fill="#009FE3"><path d="M12.068 14.792a4.052 4.052 0 0 0 4.05-4.05.212.212 0 0 0-.21-.21H14.38a.212.212 0 0 0-.21.21 2.108 2.108 0 0 1-2.102 2.102 2.108 2.108 0 0 1-2.102-2.102.212.212 0 0 0-.21-.21H8.228a.212.212 0 0 0-.21.21 4.051 4.051 0 0 0 4.05 4.05z"/><path d="M12.068 18.613c4.337 0 7.871-3.534 7.871-7.871a.212.212 0 0 0-.21-.21H18.2a.212.212 0 0 0-.21.21c0 3.267-2.656 5.923-5.923 5.923s-5.923-2.656-5.923-5.923a.212.212 0 0 0-.21-.21H4.407a.212.212 0 0 0-.21.21c-.02 4.337 3.515 7.871 7.871 7.871z"/><path d="M23.569 10.532h-1.528a.212.212 0 0 0-.21.21c0 5.388-4.394 9.763-9.763 9.763-5.388 0-9.763-4.375-9.763-9.763a.212.212 0 0 0-.21-.21H.566a.212.212 0 0 0-.21.21c0 6.458 5.254 11.711 11.711 11.711s11.711-5.254 11.711-11.711a.21.21 0 0 0-.209-.21z"/></g><path fill="#222" d="M6.795 5.469c.783.401 1.624.478 2.388.917.497.287.802.611 1.108 1.089.478.726.459 1.624.459 1.624l.057.993s.382.993 1.223.993c.898 0 1.223-.993 1.223-.993l.057-.993s-.019-.898.459-1.624c.306-.478.611-.822 1.108-1.089.764-.439 1.605-.516 2.388-.917.783-.401 1.548-.917 2.063-1.643.516-.726.764-1.681.478-2.522-1.49-.076-3.21.096-4.528.802-1.834.974-2.942.63-3.267 2.082h-.019c-.325-1.471-1.433-1.108-3.267-2.082-1.319-.706-3.038-.878-4.529-.802-.286.841-.038 1.796.478 2.522.573.726 1.337 1.242 2.121 1.643z"/></svg>
