<svg xmlns="http://www.w3.org/2000/svg" width="24" height="24" viewBox="0 0 24 24"><path fill="#A22430" d="M3.898.566h16.204c1.815 0 3.285 1.47 3.285 3.285v16.203c0 1.815-1.47 3.286-3.285 3.286H3.898c-1.814 0-3.285-1.473-3.285-3.287V3.85c0-1.813 1.47-3.284 3.285-3.284z"/><path fill="#FFF" d="M13.78 16.112l1.475-.082s.287 1.76-2.867 1.64c-2.007-.08-3.32-1.107-3.32-4.098s.37-3.482 3.196-3.605c2.827-.123 3.36 2.294 3.36 2.294h2.334s-.18-1.737-1.52-3.055c1.204-.667 1.177-1.95 1.135-2.76-.04-.78-1.686-2.78-2.07-2.44-.383.342.636.677.554 2.357-.034.738.186 1.31-1.227 1.31-.943 0-.553-.838-1.74-.838-.7 0-.965.446-1.066.814-.1-.368-.366-.814-1.065-.814-1.19 0-.8.84-1.742.84-1.413 0-1.193-.575-1.23-1.312-.082-1.68.936-2.014.552-2.356-.383-.34-2.07 1.29-2.07 2.438 0 .816-.043 2.103 1.156 2.767-1.14 1.112-1.365 2.683-1.342 4.076.04 2.54 1.106 6.31 5.9 6.555C16.975 20.09 18 16.32 18 13.9h-5.038l.82 2.212z"/></svg>