<svg xmlns="http://www.w3.org/2000/svg" width="24" height="24" viewBox="0 0 24 24"><path fill="#43488A" d="M6.076 5.518L.214 8.986l1.57.045 1.568.046.027 6.256.017 6.247h17.118V9.12l1.63-.017 1.642-.026-5.87-3.487c-3.227-1.918-5.897-3.503-5.924-3.512-.028-.02-2.69 1.53-5.917 3.44z"/><path fill="#FFF" d="M16.314 7.955c.69.34 1.326.995 1.66 1.703.13.316.268.628.24 1.362-.024.663-.07.923-.277 1.363-.546 1.165-1.622 1.945-2.85 2.026l-.664.044-.233.922c-.196.768-.215 1.027-.215 1.027.223.235.726.382.938.926.286.555.253 1.344-.114 1.8-.6.745-1.497.97-2.285.557-.718-.376-1.093-1.31-.87-2.125.054-.206-.01-.268-.868-.833l-.933-.62-.34.278c-1.623 1.3-3.998.154-3.99-1.936 0-1.345 1.068-2.393 2.44-2.384.688 0 1.1.153 1.612.62l.376.34.834-.42.843-.413-.09-.296c-.127-.44-.1-1.417.052-1.91.17-.592.7-1.327 1.2-1.695 1.023-.75 2.422-.886 3.532-.34zm-6.158 7.6l1.867 1.284s.567-.48 1.337-.547l.478-2.03s-1.48-.48-1.897-1.517l-1.73.82c0 .002.41 1.025-.054 1.988z"/></svg>
