<svg xmlns="http://www.w3.org/2000/svg" width="24" height="24" viewBox="0 0 24 24"><path fill="#F6C915" d="M1 1h22v22H1z"/><path fill="#1A171B" d="M9.06 17.44c-.828 0-1.477-.107-1.95-.323-.472-.216-.81-.51-1.015-.883-.203-.373-.302-.8-.297-1.285.006-.485.073-1 .202-1.55l2.22-9.283 2.71-.42-2.43 10.07c-.047.21-.073.403-.08.576-.005.176.027.33.097.464s.19.242.36.324c.168.082.404.134.707.158L9.06 17.44zm9.792-5.786c0 .852-.14 1.63-.42 2.336-.28.706-.666 1.314-1.16 1.827-.495.513-1.09.912-1.783 1.198-.694.285-1.45.428-2.265.428-.396 0-.792-.035-1.19-.104L11.25 20.5H8.66l2.902-12.1c.467-.14 1-.264 1.6-.375s1.252-.166 1.95-.166c.653 0 1.216.1 1.69.298.47.198.858.47 1.162.814.302.343.527.746.673 1.206.145.46.218.953.218 1.478m-6.348 3.584c.198.047.443.07.734.07.455 0 .87-.084 1.242-.253.373-.168.69-.405.953-.708.262-.303.466-.667.612-1.093.145-.425.22-.894.22-1.408 0-.502-.112-.928-.332-1.278-.223-.35-.607-.526-1.155-.526-.373 0-.723.036-1.05.106l-1.223 5.088"/></svg>