<svg xmlns="http://www.w3.org/2000/svg" width="24" height="24" viewBox="0 0 24 24"><path fill="#3088D4" d="M21.07 14.23c-.307 1.583-2.753 3.315-5.565 3.65-1.466.176-2.91.336-4.447.266-2.516-.115-4.502-.6-4.502-.6 0 .244.015.477.046.695.327 2.484 2.462 2.634 4.485 2.702 2.04.07 3.86-.503 3.86-.503l.083 1.845s-1.428.767-3.972.908c-1.403.077-3.144-.035-5.173-.573-4.4-1.164-5.157-5.854-5.272-10.612C.578 10.598.6 9.264.6 8.15c0-4.866 3.188-6.292 3.188-6.292 1.607-.74 4.366-1.05 7.234-1.073h.07c2.868.023 5.628.334 7.236 1.072 0 0 3.188 1.426 3.188 6.292 0 0 .04 3.59-.445 6.08"/><path fill="#FFF" d="M5.013 6.97c0-.71.574-1.283 1.282-1.283.71 0 1.283.573 1.283 1.282 0 .707-.574 1.28-1.282 1.28-.71 0-1.283-.572-1.283-1.28m18.394 1.556v5.893h-2.334V8.7c0-1.206-.507-1.818-1.522-1.818-1.12 0-1.684.725-1.684 2.16v3.132h-2.32v-3.13c0-1.437-.562-2.163-1.684-2.163-1.014 0-1.522.613-1.522 1.82v5.717h-2.334V8.525c0-1.203.307-2.16.922-2.87.635-.707 1.467-1.07 2.5-1.07 1.193 0 2.1.46 2.696 1.377l.58.975.582-.975c.598-.918 1.503-1.377 2.697-1.377 1.032 0 1.864.363 2.5 1.07.617.71.924 1.667.924 2.87"/></svg>