<svg xmlns="http://www.w3.org/2000/svg" width="24" height="24" viewBox="0 0 24 24"><path fill="#3088D4" d="M22.555 14.315c-.32 1.64-2.856 3.434-5.77 3.783-1.518.18-3.014.348-4.61.275-2.608-.12-4.667-.623-4.667-.623 0 .254.016.496.047.72.34 2.576 2.553 2.73 4.65 2.8 2.116.074 4-.52 4-.52l.086 1.912s-1.48.794-4.116.94c-1.454.08-3.26-.036-5.362-.593-4.56-1.207-5.345-6.07-5.465-11.002-.037-1.465-.015-2.846-.015-4 0-5.045 3.305-6.524 3.305-6.524C6.303.72 9.162.397 12.135.374h.073c2.973.023 5.834.345 7.5 1.11 0 0 3.306 1.48 3.306 6.523.002 0 .043 3.723-.46 6.308"/><path fill="#FFF" d="M19.117 8.4v6.107h-2.42V8.58c0-1.25-.525-1.884-1.577-1.884-1.163 0-1.746.753-1.746 2.24v3.245H10.97V8.937c0-1.487-.583-2.24-1.746-2.24-1.052 0-1.577.635-1.577 1.885v5.93h-2.42V8.4c0-1.248.317-2.24.955-2.974.66-.734 1.52-1.11 2.592-1.11 1.238 0 2.176.477 2.796 1.43l.603 1.01.603-1.01c.62-.953 1.558-1.43 2.796-1.43 1.07 0 1.933.378 2.59 1.112.64.734.957 1.726.957 2.974"/></svg>