<svg xmlns="http://www.w3.org/2000/svg" width="24" height="24" viewBox="0 0 24 24"><path fill="#3088D4" d="M22.297 14.27c-.313 1.61-2.803 3.372-5.663 3.714-1.49.178-2.96.34-4.525.27-2.56-.118-4.58-.612-4.58-.612 0 .25.015.487.045.708.333 2.527 2.505 2.678 4.563 2.75 2.078.07 3.927-.513 3.927-.513l.085 1.878s-1.452.78-4.04.923c-1.428.078-3.2-.036-5.264-.583C2.37 21.622 1.6 16.85 1.483 12.01c-.035-1.44-.013-2.794-.013-3.928 0-4.95 3.244-6.402 3.244-6.402C6.35.93 9.154.614 12.074.59h.072c2.918.024 5.726.34 7.362 1.09 0 0 3.244 1.452 3.244 6.403-.002 0 .038 3.65-.455 6.188"/><path fill="#FFF" d="M7.924 10.078c0 .887-.72 1.606-1.606 1.606-.887 0-1.606-.72-1.606-1.606s.72-1.606 1.606-1.606c.887 0 1.606.72 1.606 1.606m5.787 0c0 .887-.717 1.606-1.605 1.606-.886 0-1.605-.72-1.605-1.606s.72-1.606 1.606-1.606c.886 0 1.606.72 1.606 1.606m5.788 0c0 .887-.72 1.606-1.606 1.606s-1.605-.72-1.605-1.606.718-1.606 1.605-1.606 1.605.72 1.605 1.606"/></svg>