<svg xmlns="http://www.w3.org/2000/svg" width="24" height="24"><circle fill="#F66E4F" cx="12" cy="12" r="11.88"/><path fill="#FFF" d="M18.122 9.827c-.454 0-.843-.157-1.168-.47a1.619 1.619 0 0 1-.47-1.168c0-.454.157-.838.47-1.151.324-.324.714-.487 1.168-.487s.843.162 1.168.487c.324.314.487.697.487 1.151 0 .454-.162.843-.487 1.168-.325.313-.714.47-1.168.47zm.016.324c.454 0 .838.162 1.151.487.324.324.487.713.487 1.168v4.006c0 .454-.162.843-.487 1.168-.314.314-.697.47-1.151.47-.454 0-.843-.157-1.168-.47a1.595 1.595 0 0 1-.487-1.168v-4.006c0-.454.162-.844.487-1.168a1.592 1.592 0 0 1 1.168-.487zm-8.14 4.985a1.8 1.8 0 0 1-1.525-.876c-.146-.207-.434-.28-.438 0v1.292c0 .518-.189.967-.568 1.346a1.829 1.829 0 0 1-1.346.552 1.87 1.87 0 0 1-1.346-.551 1.868 1.868 0 0 1-.551-1.346V8.448c0-.4.113-.762.341-1.087.238-.335.54-.568.908-.697.205-.076.422-.114.648-.114.584 0 1.07.227 1.46.681.205.227.325.346.357.357 0 0 1.542 1.864 1.585 1.897.043.032.17.281.475.281.304 0 .447-.248.491-.281.043-.032 1.585-1.897 1.585-1.897.011.011.124-.108.341-.357.4-.454.892-.681 1.476-.681.216 0 .432.038.649.113.367.13.665.362.892.697.238.325.356.687.356 1.087v7.105c0 .518-.189.967-.568 1.346a1.832 1.832 0 0 1-1.346.551c-.519 0-.968-.184-1.347-.551a1.868 1.868 0 0 1-.551-1.346V14.26c-.032-.353-.343-.13-.454 0-.291.541-.85.874-1.524.876z"/></svg>