<?xml version="1.0" encoding="utf-8"?>
<!-- Generator: Adobe Illustrator 17.0.0, SVG Export Plug-In . SVG Version: 6.00 Build 0)  -->
<!DOCTYPE svg PUBLIC "-//W3C//DTD SVG 1.1//EN" "http://www.w3.org/Graphics/SVG/1.1/DTD/svg11.dtd">
<svg version="1.1" id="Layer_1" xmlns="http://www.w3.org/2000/svg" xmlns:xlink="http://www.w3.org/1999/xlink" x="0px" y="0px"
	 width="24px" height="24px" viewBox="0 0 24 24" enable-background="new 0 0 24 24" xml:space="preserve">
<circle fill="#F66E4F" cx="12" cy="12" r="11.88"/>
<path fill="#FFFFFF" d="M18.122,9.827c-0.454,0-0.843-0.157-1.168-0.47c-0.314-0.324-0.47-0.714-0.47-1.168
	c0-0.454,0.157-0.838,0.47-1.151c0.324-0.324,0.714-0.487,1.168-0.487s0.843,0.162,1.168,0.487c0.324,0.314,0.487,0.697,0.487,1.151
	c0,0.454-0.162,0.843-0.487,1.168C18.965,9.67,18.576,9.827,18.122,9.827z M18.138,10.151c0.454,0,0.838,0.162,1.151,0.487
	c0.324,0.324,0.487,0.713,0.487,1.168v4.006c0,0.454-0.162,0.843-0.487,1.168c-0.314,0.314-0.697,0.47-1.151,0.47
	c-0.454,0-0.843-0.157-1.168-0.47c-0.324-0.324-0.487-0.714-0.487-1.168v-4.006c0-0.454,0.162-0.844,0.487-1.168
	C17.295,10.313,17.684,10.151,18.138,10.151z M9.998,15.136c-0.674,0.002-1.252-0.404-1.525-0.876c-0.146-0.207-0.434-0.28-0.438,0
	v1.292c0,0.518-0.189,0.967-0.568,1.346C7.1,17.266,6.651,17.45,6.121,17.45c-0.518,0-0.967-0.184-1.346-0.551
	c-0.367-0.378-0.551-0.827-0.551-1.346V8.448c0-0.4,0.113-0.762,0.341-1.087c0.238-0.335,0.54-0.568,0.908-0.697
	C5.678,6.588,5.895,6.55,6.121,6.55c0.584,0,1.07,0.227,1.46,0.681c0.205,0.227,0.325,0.346,0.357,0.357
	c0,0,1.542,1.864,1.585,1.897c0.043,0.032,0.17,0.281,0.475,0.281c0.304,0,0.447-0.248,0.491-0.281
	c0.043-0.032,1.585-1.897,1.585-1.897c0.011,0.011,0.124-0.108,0.341-0.357c0.4-0.454,0.892-0.681,1.476-0.681
	c0.216,0,0.432,0.038,0.649,0.113c0.367,0.13,0.665,0.362,0.892,0.697c0.238,0.325,0.356,0.687,0.356,1.087v7.105
	c0,0.518-0.189,0.967-0.568,1.346c-0.367,0.367-0.816,0.551-1.346,0.551c-0.519,0-0.968-0.184-1.347-0.551
	c-0.367-0.378-0.551-0.827-0.551-1.346V14.26c-0.032-0.353-0.343-0.13-0.454,0C11.231,14.801,10.672,15.134,9.998,15.136z"/>
</svg>
