<svg xmlns="http://www.w3.org/2000/svg" width="24" height="24" viewBox="0 0 24 24"><linearGradient id="a" gradientUnits="userSpaceOnUse" x1="295.135" y1="-318.045" x2="316.865" y2="-325.955" gradientTransform="matrix(1 0 0 -1 -294 -310)"><stop offset="0" stop-color="#365BCA"/><stop offset="1" stop-color="#5B48C5"/></linearGradient><circle fill="url(#a)" cx="12" cy="12" r="11.559"/><path fill="#FFF" d="M10.1 7.134c-1.898 0-3.436 1.538-3.436 3.436 0 .148.01.293.028.436l-.082-.002c-1.613 0-2.92 1.308-2.92 2.92 0 1.615 1.307 2.922 2.92 2.922h11.33c1.327 0 2.405-1.077 2.405-2.406 0-1.328-1.077-2.405-2.405-2.405h-.013c.003-.06.006-.12.006-.18 0-1.898-1.538-3.436-3.436-3.436-.53 0-1.032.12-1.48.334-.607-.972-1.686-1.62-2.917-1.62z"/></svg>