<svg xmlns="http://www.w3.org/2000/svg" width="24" height="24" viewBox="0 0 24 24"><path fill="#7FADF2" d="M21.393 5.493c1.28 1.847 2.032 4.09 2.032 6.507s-.752 4.66-2.033 6.507l-2.96-2.96c.58-1.052.91-2.26.91-3.547s-.328-2.495-.91-3.548l2.96-2.96zm-2.886-2.885l-2.96 2.96c-1.052-.58-2.26-.912-3.547-.912-4.056 0-7.344 3.288-7.344 7.344S7.944 19.344 12 19.344c1.287 0 2.495-.33 3.548-.91l2.96 2.958c-1.848 1.283-4.09 2.034-6.508 2.034C5.69 23.426.575 18.31.575 12S5.69.574 12 .574c2.417 0 4.66.752 6.507 2.034z"/><path fill="#B8D3F4" d="M21.393 5.493c1.28 1.847 2.032 4.09 2.032 6.507s-.752 4.66-2.033 6.507l-2.96-2.96c.58-1.052.91-2.26.91-3.547s-.328-2.495-.91-3.548l2.96-2.96z"/></svg>