<svg xmlns="http://www.w3.org/2000/svg" width="24" height="24"><path fill="#008000" d="M23.484 10.926c-.065-.029-.789-.033-1.765-.024a9.565 9.565 0 0 0-1.952-4.613c.69-.669 1.2-1.176 1.239-1.254.25-.496-1.12-1.883-1.672-1.672-.066.025-.578.532-1.257 1.223a9.894 9.894 0 0 0-4.902-2.045c.014-.921.015-1.601-.012-1.682-.174-.527-2.123-.54-2.365 0-.028.063-.033.747-.025 1.68a9.89 9.89 0 0 0-4.888 2.024c-.662-.683-1.163-1.187-1.241-1.226-.496-.25-1.883 1.12-1.672 1.672.025.066.528.574 1.215 1.249a9.575 9.575 0 0 0-1.97 4.614c-.93-.014-1.619-.015-1.7.012-.527.174-.54 2.123 0 2.365.063.028.742.033 1.669.025a9.127 9.127 0 0 0 1.985 4.693c-.678.657-1.175 1.152-1.214 1.23-.25.496 1.12 1.883 1.672 1.672.066-.025.585-.539 1.272-1.238a10.082 10.082 0 0 0 4.843 1.911c-.014.93-.015 1.619.012 1.701.174.527 2.123.54 2.365 0 .028-.063.033-.754.025-1.695a10.077 10.077 0 0 0 4.898-1.927c.679.701 1.195 1.22 1.274 1.26.496.25 1.883-1.12 1.672-1.672-.025-.066-.53-.576-1.22-1.254a9.12 9.12 0 0 0 1.97-4.652c.953.015 1.661.016 1.744-.011.527-.175.54-2.124 0-2.366zm-3.446-.001c-1.789.029-3.684.073-4.08.083a4.042 4.042 0 0 0-.333-.78 632.43 632.43 0 0 0 2.932-2.775 7.96 7.96 0 0 1 1.481 3.472zm-3.137-5.133c-1.178 1.216-2.413 2.51-2.777 2.891a4.233 4.233 0 0 0-1.092-.474c.019-.632.071-2.361.108-3.985a8.234 8.234 0 0 1 3.761 1.568zm-6.108-1.568c.026 1.629.065 3.365.08 3.992a4.218 4.218 0 0 0-1.069.469 527.347 527.347 0 0 0-2.753-2.908 8.204 8.204 0 0 1 3.742-1.553zM5.39 7.432a584.547 584.547 0 0 0 2.914 2.799c-.14.248-.251.512-.335.786-.522-.016-2.356-.071-4.075-.111A7.973 7.973 0 0 1 5.39 7.432zm-1.534 5.821c1.72-.027 3.567-.07 4.105-.082.089.297.21.58.366.844-.372.35-1.728 1.627-2.986 2.827a7.596 7.596 0 0 1-1.485-3.589zm3.169 5.224c1.237-1.277 2.548-2.651 2.854-2.971.314.176.652.313 1.006.406-.02.66-.072 2.424-.11 4.057a8.372 8.372 0 0 1-3.75-1.492zm6.101 1.496c-.026-1.634-.066-3.4-.081-4.061a4.313 4.313 0 0 0 1.059-.436c.298.317 1.597 1.697 2.825 2.984a8.375 8.375 0 0 1-3.803 1.513zm5.479-3.154a638.548 638.548 0 0 0-2.975-2.857 3.77 3.77 0 0 0 .342-.805c.43.013 2.321.071 4.099.112a7.567 7.567 0 0 1-1.466 3.55z"/>
  </svg>
