<svg xmlns="http://www.w3.org/2000/svg" width="24" height="24"><path fill="#BF3F8A" d="M10.754 11.488c.024.168.041.338.041.512a3.617 3.617 0 0 1-3.607 3.607H3.982A3.617 3.617 0 0 1 .375 12a3.616 3.616 0 0 1 3.04-3.557v-.001c.185-.029.374-.049.567-.049h3.206a3.617 3.617 0 0 1 3.566 3.095z"/><path fill="#ED8611" d="M15.56 3.413C15.283 1.699 13.792.377 12.003.377s-3.28 1.321-3.557 3.036c.153.111.302.231.44.369l2.267 2.267a3.636 3.636 0 0 1 .85 3.734c-.119.344-.29.672-.515.974.169.024.34.042.515.042s.346-.017.515-.042a3.583 3.583 0 0 0 1.053-.324 3.64 3.64 0 0 0 1.674-1.674 3.563 3.563 0 0 0 .366-1.568V3.984a3.696 3.696 0 0 0-.051-.571z"/><path fill="#2E86DD" d="M15.12 20.219l-2.267-2.267a3.636 3.636 0 0 1-.85-3.734c.119-.344.29-.672.515-.974a3.65 3.65 0 0 0-.515-.042c-.175 0-.346.017-.515.042a3.583 3.583 0 0 0-1.053.324 3.64 3.64 0 0 0-1.674 1.674 3.563 3.563 0 0 0-.366 1.568v3.206c0 .195.02.385.05.572.277 1.714 1.768 3.036 3.557 3.036s3.28-1.321 3.557-3.036a3.813 3.813 0 0 1-.439-.369z"/><path fill="#9EE85D" d="M20.59 8.443a3.555 3.555 0 0 1-.369.44l-2.267 2.267a3.636 3.636 0 0 1-3.734.85 3.591 3.591 0 0 1-.974-.515c-.024.169-.041.34-.041.515s.017.346.041.515c.054.372.165.726.324 1.053a3.64 3.64 0 0 0 1.674 1.674 3.563 3.563 0 0 0 1.568.366h3.206c.195 0 .385-.02.572-.05 1.714-.277 3.036-1.768 3.036-3.557s-1.322-3.282-3.036-3.558z"/><path fill="#F0C51A" d="M20.221 3.781a3.617 3.617 0 0 0-4.661-.369c.03.187.05.377.05.572V7.19c0 .562-.134 1.093-.366 1.568a3.64 3.64 0 0 1-1.674 1.674c-.327.16-.681.27-1.053.324.102.137.211.27.335.394.124.124.257.233.394.335.301.225.63.397.974.515a3.636 3.636 0 0 0 3.734-.85l2.267-2.267c.138-.138.258-.286.369-.44a3.617 3.617 0 0 0-.369-4.662z"/><path fill="#49B85F" d="M20.59 15.557c-.187.03-.377.05-.572.05h-3.206a3.563 3.563 0 0 1-1.568-.366 3.64 3.64 0 0 1-1.674-1.674 3.553 3.553 0 0 1-.324-1.053c-.137.102-.27.211-.394.335a3.545 3.545 0 0 0-.335.394 3.55 3.55 0 0 0-.515.974 3.636 3.636 0 0 0 .85 3.734l2.267 2.267c.138.138.286.258.44.369 1.408 1.016 3.397.896 4.661-.369a3.615 3.615 0 0 0 .37-4.661z"/><path fill="#ED5B47" d="M12.003 7.416c-.172-.5-.453-.97-.85-1.367L8.885 3.781a3.555 3.555 0 0 0-.44-.369c-1.407-1.016-3.396-.896-4.661.369s-1.385 3.254-.369 4.661c.185-.029.374-.049.567-.049h3.206a3.617 3.617 0 0 1 3.566 3.095l.005-.003c.137-.102.27-.211.394-.335.124-.124.233-.257.335-.394a3.55 3.55 0 0 0 .515-.974 3.646 3.646 0 0 0 0-2.366z"/><path fill="#8D59A8" d="M11.153 12.85a3.545 3.545 0 0 0-.394-.335A3.55 3.55 0 0 0 9.785 12a3.636 3.636 0 0 0-3.734.85l-2.267 2.267a3.555 3.555 0 0 0-.369.44c-1.016 1.408-.896 3.397.369 4.662 1.265 1.265 3.254 1.385 4.662.369a3.599 3.599 0 0 1-.05-.572V16.81c0-.562.134-1.093.366-1.568a3.64 3.64 0 0 1 1.674-1.674c.327-.16.681-.27 1.053-.324a3.908 3.908 0 0 0-.336-.394z"/><path fill="#FFF" d="M11.297 14.806h2.036c1.918 0 3.473-1.526 3.473-3.408S15.252 7.99 13.333 7.99h-2.939c-1.107 0-2.004.88-2.004 1.966v7.653l2.907-2.803z"/></svg>