<svg xmlns="http://www.w3.org/2000/svg" width="24" height="24" viewBox="0 0 24 24"><path fill="#121A24" d="M21.085,0.756H2.915c-1.218,0-2.205,0.987-2.205,2.205V21.13c0,1.218,0.987,2.205,2.205,2.205h18.169
c1.218,0,2.205-0.987,2.205-2.205V2.961C23.29,1.743,22.302,0.756,21.085,0.756z"/><path fill="#FBA457" d="M16.783,15.89v2.609c0,0.657-0.533,1.19-1.19,1.19h-2.655V15.89H16.783z M7.217,5.592v14.097h3.799V4.402
H8.407C7.75,4.402,7.217,4.935,7.217,5.592z M12.938,4.402v7.644h2.655c0.657,0,1.19-0.533,1.19-1.19V4.402H12.938z"/></svg>
