<svg xmlns="http://www.w3.org/2000/svg" width="24" height="24" viewBox="0 0 24 24"><path fill="#57EDA2" d="M14.372.553c-.1-.02-.205-.032-.313-.032H3.822c-.852 0-1.55.697-1.55 1.552V21.93c0 .852.7 1.55 1.55 1.55H14.06c.853 0 1.55-.696 1.55-1.55v-4.082l-.214-.048c-.145-.032-.284-.07-.426-.11l-.438.132v2.788H3.352V2.98h11.18v1.175c.35-.068.713-.114 1.08-.14V2.073c0-.75-.535-1.376-1.24-1.522v.003zm-3.755 1.09c.084.018.15.094.15.185 0 .104-.086.19-.188.19H7.304c-.104 0-.187-.086-.187-.188 0-.104.085-.188.187-.188h3.274c.012-.003.025 0 .035.002h.002zM9.097 21.17c.353.072.618.384.618.76 0 .43-.347.776-.774.776-.426 0-.774-.346-.774-.776s.347-.774.774-.774c.056 0 .108.005.157.014z"/><path fill="#57EDA2" d="M15.128 5.395c-3.87 0-6.787 2.393-6.787 5.567v.06c0 2.04.983 3.665 2.77 4.594l-.78 2.908c-.02.073.04.144.107.18.03.015.063.023.097.023h.022c.04 0 .078-.01.113-.034l4.04-2.16c.12.006.242.013.366.013.804 0 1.566-.104 2.27-.298 2.713-.72 4.57-2.755 4.57-5.286 0-3.174-2.92-5.567-6.788-5.567zm0 1.114c3.137 0 5.503 1.94 5.503 4.513 0 2.052-1.504 3.7-3.704 4.285-.57.158-1.188.242-1.84.242-.1 0-.198-.005-.296-.01l-3.156 1.808c-.028.02-.06.028-.092.028h-.02c-.026 0-.053-.007-.077-.02-.054-.03-.105-.088-.087-.145l.715-2.283c-1.448-.753-2.447-2.202-2.447-3.854v-.05c0-2.572 2.365-4.513 5.503-4.513h-.002z"/><path fill="#AD68D5" d="M11.765 7.982h1.727c.144 0 .257.036.338.108.085.068.14.153.162.257l.46 3.138c.04.266.074.527.1.783.028.252.05.506.07.762.08-.252.166-.504.256-.756.095-.257.2-.52.318-.79l1.228-3.108h.478s-1.45-.394-1.328-.394h3.14l-.086.057-3.392 6.94h-1.77l-1.7-6.998z"/></svg>