<svg xmlns="http://www.w3.org/2000/svg" width="24" height="24" viewBox="0 0 24 24"><path fill="#13628E" d="M7.803 16.282C5.54 16.18-.125 11.578.587 6.712 1.3 1.832 7.12.662 7.433.58c.865-.23 6.252-.323 8.006 0 1.61.295 5.506 1.688 5.364 2.083-.077.215-4.346 5.175-4.603 5.036-1.893-1.03-6.936-.803-7.924-.252-.434.242-1.524 1.177-1.524 2.434 0 1.52 2.065 3.552 3.088 4.074l-2.037 2.326z"/><path fill="#13628E" d="M16.197 7.718c2.264.103 7.927 4.705 7.216 9.57-.712 4.88-6.533 6.05-6.846 6.132-.865.23-6.252.322-8.006 0-1.61-.296-5.506-1.69-5.364-2.084.077-.215 4.346-5.175 4.603-5.036 1.893 1.03 6.936.802 7.924.25.434-.24 1.524-1.177 1.524-2.434 0-1.52-2.065-3.552-3.088-4.074l2.037-2.324z"/></svg>