<svg xmlns="http://www.w3.org/2000/svg" width="24" height="24" viewBox="0 0 24 24"><path fill="#2FCBBE" d="M8.238 8.192h7.187v9.265H8.24l-.002-9.265z"/><path fill="#77FFBD" d="M16.58 13.496h5.083v9.94H16.58v-9.94z"/><path fill="#3088D4" d="M2.26 17.456h4.75V8.192H2.26v9.264z"/><path fill="#4C4C4C" d="M15.463 23.438H2.296l.002-4.86h13.165v4.86zm1.155-15.246H21.7v4.158h-5.082V8.192zm5.955-3.217l-10.3-4.31c-.2-.138-1.418-.138-1.66 0l-9.31 4.354c-.293.136-.447.453-.377.77.07.32 1.37 1.23 1.37 1.23H21.7s1.393-.998 1.393-1.38c0-.324-.222-.59-.52-.665z"/></svg>